<?xml version="1.0" encoding="UTF-8"?><svg id="Ebene_1" xmlns="http://www.w3.org/2000/svg" viewBox="0 0 1067.01 450"><defs><style>.cls-1{stroke-width:0px;}</style></defs><path class="cls-1" d="m461.46,180.92h-3.94c-2.1,0-3,.9-3,3v13.61c-2.66-.71-7.14-1.83-12.37-1.83-12.94,0-19.78,6.87-19.78,19.87v13.22c0,12.82,7.2,19.59,20.81,19.59,8.4,0,13.75-1.69,17.06-2.96,3.31-1.35,4.12-2.5,4.12-5.85v-55.65c0-2.08-.9-3-2.91-3Zm-6.94,55.75q0,.77-.81,1.08c-2.71.94-6.19,1.46-9.79,1.46-7.82,0-11.62-3.5-11.62-10.69v-12.65c0-7.48,3.63-10.96,11.44-10.96,4.73,0,8.51,1.16,10.78,1.86v29.91Zm292.19-39.56h-11.53v-13.19c0-2.1-.9-3-3-3h-3.94c-2.06,0-2.91.87-2.91,3v13.19h-7.03c-2.1,0-3,.9-3,3v3.28c0,2.1.9,3,3,3h7.03v21.28c0,7.95,1.38,12.92,4.49,16.12,3.03,3.13,7.68,4.52,15.08,4.52.53,0,1.08,0,1.65-.02,1.89-.1,3.06-.63,3.06-3v-3.38c0-2.16-.87-3-3.09-3-8.65,0-11.34-1.58-11.34-11.44v-21.09h11.53c2.01,0,2.91-.93,2.91-3v-3.28c0-2.08-.9-3-2.91-3Zm66.72,0h-3.94c-2.1,0-3,.9-3,3v43.87c0,2.1.9,3,3,3h3.94c2.1,0,3-.9,3-3v-43.87c0-2.1-.9-3-3-3Zm-429.39-1.4c-13.62,0-21.75,7.01-21.75,18.75v15.28c0,11.51,8.33,18.66,21.75,18.66s21.84-6.97,21.84-18.66v-15.28c0-11.74-8.17-18.75-21.84-18.75Zm12,34.03c0,5.99-4.49,9.56-12,9.56s-11.9-3.57-11.9-9.56v-15.37c0-5.99,4.45-9.56,11.9-9.56s12,3.57,12,9.56v15.37Zm286.01-34.03c-9.22,0-14.8,1.85-18.2,3.25-3.12,1.3-4.03,2.64-4.03,5.94v39.09c0,2.07.9,3,2.91,3h3.94c2.1,0,3-.9,3-3v-36.47c0-.55.09-.77.61-.97,3.42-1.09,7-1.65,10.64-1.65,7.48,0,10.97,3.31,10.97,10.4v28.69c0,2.1.9,3,3,3h3.93c2.1,0,3-.9,3-3v-28.97c0-12.63-6.84-19.31-19.78-19.31Zm-61.29,0c-13.94,0-21.94,7.58-21.94,20.81v11.63c0,13.06,7.66,20.25,21.57,20.25,9.98,0,16.98-3.38,20.78-10,.68-1.05.9-1.97.67-2.81-.22-.79-.82-1.43-1.8-1.92l-2.51-1.3c-.82-.46-1.45-.66-2.04-.66-1.21,0-1.98.87-2.62,1.78-2.44,4.11-6.49,6.1-12.39,6.1-7.73,0-11.81-3.63-11.81-10.5v-3.75h29.81c2.76,0,4.22-1.39,4.22-4.03v-5.44c0-12.62-8.2-20.15-21.94-20.15Zm12.09,21.65h-24.19v-1.97c0-7.13,4.29-11.06,12.09-11.06s12.09,3.93,12.09,11.06v1.97Zm-128.86-21.65c-13.94,0-21.94,7.58-21.94,20.81v11.63c0,13.06,7.66,20.25,21.56,20.25,9.98,0,16.98-3.38,20.78-10,.67-1.04.9-1.98.67-2.81-.22-.79-.82-1.44-1.8-1.92l-2.51-1.3c-.82-.46-1.45-.66-2.04-.66-1.2,0-1.98.87-2.62,1.78-2.44,4.11-6.49,6.1-12.38,6.1-7.73,0-11.81-3.63-11.81-10.5v-3.75h29.81c2.76,0,4.22-1.39,4.22-4.03v-5.44c0-12.62-8.2-20.15-21.94-20.15Zm12.09,21.65h-24.19v-1.97c0-7.13,4.29-11.06,12.09-11.06s12.09,3.93,12.09,11.06v1.97Zm272.98-21.65h-3.02c-6.78.15-12.63,1.15-17.43,2.96-3.12,1.31-4.02,2.64-4.02,5.94v39.37c0,2.07.9,3,2.91,3h3.94c2.1,0,3-.9,3-3v-36.37c0-.64,0-.86.78-1.16,3.42-1.06,6.78-1.56,10.56-1.56h3.28c2.1,0,3-.9,3-3v-3.19c0-2.1-.9-3-3-3Z"/><path class="cls-1" d="m235.6,256.46c-.82-.82-2.1-.91-3.06-.25-4.38,3.02-9.36,4.32-13.81,4.32-13.97,0-25.3-11.53-24.97-25.58.32-13.64,11.8-24.38,25.44-24.38h26.76c2.56,0,4.84,1.83,5.17,4.37.39,3.07-2,5.7-4.99,5.7h-27.01c-7.31,0-13.54,5.67-13.82,12.98-.29,7.68,5.87,14.02,13.49,14.02h26.84c18.31,0,33.65-14.49,33.99-32.79.36-18.73-14.78-34.09-33.43-34.09-5.7,0-12.9,1.35-19.37,6.18-1.16.87-1.29,2.56-.26,3.59l2.76,2.76c.82.82,2.1.91,3.06.25,4.38-3.02,9.36-4.32,13.81-4.32,13.97,0,25.3,11.53,24.97,25.58-.32,13.64-11.8,24.38-25.44,24.38h-26.76c-2.56,0-4.84-1.83-5.17-4.37-.39-3.07,2-5.7,4.99-5.7h27.01c7.31,0,13.54-5.67,13.82-12.98.29-7.68-5.87-14.02-13.49-14.02h-26.84c-18.31,0-33.65,14.49-33.99,32.79-.36,18.73,14.78,34.09,33.43,34.09,5.7,0,12.9-1.35,19.37-6.18,1.16-.87,1.29-2.56.26-3.59l-2.76-2.76Z"/><path class="cls-1" d="m344.81,230.79s-3.16-1.19-4.49-1.18c-1.42.01-2.02,1.09-2.58,2.28-2.3,4.97-5.76,7.58-11.89,7.58-7.38,0-11.44-3.7-11.44-10.4v-14.15c0-6.75,3.96-10.31,11.44-10.31,6.27,0,9.28,2.24,11.49,7.4.42.98,1.08,2.21,2.61,2.3,1.2.08,5.94-1.51,6.85-2.97.41-.65.3-1.54-.08-2.56-1.89-5.97-6.98-13.08-20.49-13.08s-21.75,6.96-21.75,19.59v13.4c0,12.7,7.52,19.69,21.18,19.69,11.04,0,17.99-4.39,21.23-13.43.96-2.59-.49-3.55-2.09-4.17Z"/><path class="cls-1" d="m581.53,230.79s-3.16-1.19-4.49-1.18c-1.42.01-2.02,1.09-2.58,2.28-2.3,4.97-5.76,7.58-11.89,7.58-7.38,0-11.44-3.7-11.44-10.4v-14.15c0-6.75,3.96-10.31,11.44-10.31,6.27,0,9.28,2.24,11.49,7.4.42.98,1.08,2.21,2.61,2.3,1.2.08,5.94-1.51,6.85-2.97.41-.65.3-1.54-.08-2.56-1.89-5.97-6.98-13.08-20.49-13.08s-21.75,6.96-21.75,19.59v13.4c0,12.7,7.52,19.69,21.18,19.69,11.04,0,17.99-4.39,21.23-13.43.96-2.59-.49-3.55-2.09-4.17Z"/><path class="cls-1" d="m874.66,230.79s-3.16-1.19-4.49-1.18c-1.42.01-2.02,1.09-2.58,2.28-2.3,4.97-5.76,7.58-11.89,7.58-7.38,0-11.44-3.7-11.44-10.4v-14.15c0-6.75,3.96-10.31,11.44-10.31,6.27,0,9.28,2.24,11.49,7.4.42.98,1.08,2.21,2.61,2.3,1.2.08,5.94-1.51,6.85-2.97.41-.65.3-1.54-.08-2.56-1.89-5.97-6.98-13.08-20.49-13.08s-21.75,6.96-21.75,19.59v13.4c0,12.7,7.52,19.69,21.18,19.69,11.04,0,17.99-4.39,21.23-13.43.96-2.59-.49-3.55-2.09-4.17Z"/></svg>